<svg id="Layer_1" data-name="Layer 1" xmlns="http://www.w3.org/2000/svg" viewBox="0 0 279.65 301"><title>M-Sport logo - Brandlogos.net</title><rect x="136.64" y="131.3" width="110.71" height="95.58" style="fill:#111516"/><path d="M392.17,373.42h33.38l11,35.73,11-35.73H480.9v78.35H458.72V401.51h-.21l-13.22,50.26H427.79l-13.22-50.26h-.21v50.26H392.17Z" transform="translate(-244.17 -233.5)" style="fill:#fff"/><rect x="251.2" y="131.34" width="28.45" height="95.51" style="fill:#111516"/><path d="M519.38,453.75h-4.72a9.86,9.86,0,0,0,1.27-4.23,2.4,2.4,0,0,0-.48-1.58,1.57,1.57,0,0,0-1.27-.58,1.7,1.7,0,0,0-1.14.47,8.37,8.37,0,0,0-1.29,1.6,17.09,17.09,0,0,1-3.4,4,5.52,5.52,0,0,1-3.5,1.23,5.41,5.41,0,0,1-4.28-1.91,7.27,7.27,0,0,1-1.66-4.94,12.45,12.45,0,0,1,.84-4.44h4.54a9.52,9.52,0,0,0-1.12,3.83,2.55,2.55,0,0,0,.42,1.55,1.34,1.34,0,0,0,1.15.57q1.27,0,2.87-2.64a15.38,15.38,0,0,1,2.65-3.19,5.58,5.58,0,0,1,4-1.62,5.38,5.38,0,0,1,4.35,2.12,8.23,8.23,0,0,1,1.72,5.37A11.38,11.38,0,0,1,519.38,453.75Z" transform="translate(-244.17 -233.5)" style="fill:#fff"/><path d="M499.48,438v-6.57a8.52,8.52,0,0,1,1.72-5.57,6,6,0,0,1,9.17,0,9.28,9.28,0,0,1,1.68,5.89v.91h7.72V438Zm3.89-5.31h4.79a5,5,0,0,0-.59-2.63,2,2,0,0,0-1.78-.85,2,2,0,0,0-1.84.82A5.16,5.16,0,0,0,503.37,432.74Z" transform="translate(-244.17 -233.5)" style="fill:#fff"/><path d="M520.26,412.19a7.74,7.74,0,0,1-2.82,6.46q-2.82,2.22-8.13,2.22-4.91,0-7.65-2.23a7.58,7.58,0,0,1-2.74-6.22,7.92,7.92,0,0,1,2.75-6.5q2.75-2.25,7.85-2.25t7.92,2.21A7.55,7.55,0,0,1,520.26,412.19Zm-16.74.19q0,2.87,5.85,2.87,3.77,0,5-.73a2.3,2.3,0,0,0,1.26-2.11,2.54,2.54,0,0,0-1.26-2.28q-1.26-.8-4.94-.8Q503.52,409.34,503.52,412.38Z" transform="translate(-244.17 -233.5)" style="fill:#fff"/><path d="M499.48,399.73v-6.18a9.48,9.48,0,0,1,1.67-5.92,5.65,5.65,0,0,1,7.39-1.35,5.12,5.12,0,0,1,2.07,2.4l9.14-4.24v5.6l-9.23,4.29v.09h9.23v5.3Zm3.92-5.3h4.81q-.06-3.52-2.14-3.52a2.36,2.36,0,0,0-2,.81A4.83,4.83,0,0,0,503.4,394.43Z" transform="translate(-244.17 -233.5)" style="fill:#fff"/><path d="M499.48,383.21V370.55h4.63v3.66h15.64v5.37H504.11v3.62Z" transform="translate(-244.17 -233.5)" style="fill:#fff"/><path d="M470.09,255.13C483,251.28,493.88,243,503.27,233.5a178.08,178.08,0,0,0-7.16,21.05c-14.08,6.08-26.26,15.53-37.39,25.93C462.91,272.24,467.81,264.17,470.09,255.13Z" transform="translate(-244.17 -233.5)" style="fill:#111516"/><path d="M351.45,331c6.13-30.35,35.29-51.24,64.5-56.3-2.09,15.26-5.27,30.95-1.31,46.21A166.81,166.81,0,0,1,391,322.39,90.75,90.75,0,0,0,351.45,331Z" transform="translate(-244.17 -233.5)" style="fill:#111516"/><path d="M308.35,310.2c13.37-1.3,26.77.33,40.15-.2-7,10.6-13.59,22-15.3,34.77,6.11-4.48,11.11-10.45,18-13.82,1.86,15.71,1.7,31.84,7.75,46.75,6.57-.24,12.83-2.36,19.11-4.14-.37,7.26-.92,14.54-.62,21.84a84.45,84.45,0,0,0-18,8.48c.32-8.49,1.52-17.45-1.4-25.59-18-3.88-54.58,10.84-55.16,10.85,0-.62,12.17-23.39,19-33.35A94.06,94.06,0,0,0,286,359.63c2.83-14.78,7.62-29.36,15.54-42.22C303.69,315,305.1,311.21,308.35,310.2Z" transform="translate(-244.17 -233.5)" style="fill:#111516"/><path d="M416.88,321.2c8.32-3,16.28-7,24.45-10.34A37.92,37.92,0,0,0,430,330.54c16.08-9,32.73-18.13,51.37-20.39-.82,15.29,2.24,30.36,3.54,45.52-7.1.11-14.36-.15-21.17,2.21-10.49,4.5-22.16,2.85-33.24,2.91-1.68-9.47-1.35-19.11-1.48-28.69-7.12,2.64-13.21,7.26-19.8,10.92C411.72,335.72,416,329,416.88,321.2Z" transform="translate(-244.17 -233.5)" style="fill:#111516"/><path d="M293.65,394.37c2.21-1.27,4.38-3.25,7.11-3.09-6.74,14.11-3.14,35.89.67,45.41A109.38,109.38,0,0,0,265.14,441C268.32,422.64,278,405,293.65,394.37Z" transform="translate(-244.17 -233.5)" style="fill:#111516"/><path d="M301.59,436.67a69.48,69.48,0,0,0,43.1-13.61c-2,9.51-1.69,19.28-1,28.91,12.16-2.6,22.89-9,34-14.33q-.31,12.45.42,24.91c4.72-.27,9.46-.36,14.21-.48q1.87,5.1,3.67,10.3c-21.53-1.14-41.2,11.8-54.06,28.17A103.26,103.26,0,0,0,343.47,453c-6.73.27-13,2.93-19.16,5.3-9.88,4-19.67,9.3-26.73,17.47A53.17,53.17,0,0,0,295,493c.27,7.5-.61,15.37,2.92,22.28-19.27-1.52-36.52,9.39-52.22,19.19a145.11,145.11,0,0,0-1.57-40.33c18.14-2.4,37.86-5.94,51.91-18.55C301.86,463.65,302.94,449.77,301.59,436.67Z" transform="translate(-244.17 -233.5)" style="fill:#111516"/><path d="M454.19,400.9" transform="translate(-244.17 -233.5)" style="fill:#9da0a1"/></svg>